<?xml version="1.0" encoding="utf-8"?>
<!-- Generator: Adobe Illustrator 24.0.0, SVG Export Plug-In . SVG Version: 6.00 Build 0)  -->
<svg version="1.1" xmlns="http://www.w3.org/2000/svg" xmlns:xlink="http://www.w3.org/1999/xlink" x="0px" y="0px"
	 viewBox="0 0 618 140" style="enable-background:new 0 0 618 140;" xml:space="preserve">
<style type="text/css">
	.st0{fill:none;}
</style>
<g id="freiraum">
	<g>
		<rect x="7" y="6" class="st0" width="731" height="203"/>
		<path d="M10.6,96c1.4-1.4,2-2.6,2-6.6V18.6c0-4-0.6-5.2-2-6.6h57.1l2.4,7.7h-1c-4.8-3.5-5-5.9-19.1-5.9H22.2v39.5h27.1
			c3.5-0.1,4.6-2.4,5.9-3.7v9.4c-1.1-1.3-2.4-3.7-5.9-3.8H22.2v34.3c0,4,0.6,5.2,2,6.6H10.6z"/>
		<path d="M85.2,18.6c-0.4-4-1-5.2-2.4-6.6H112c18.4,0,30.7,9,30.7,23c0,13.6-13.4,23.5-25.8,23.5c11.9,0.1,19,5.5,24.4,18.6
			c4.2,9.6,5.4,17.8,13.3,17.8V96c-12.8,0-16.7-0.1-22.8-14.6c-9-22.1-18.6-22.2-27.2-22.2h-9.7v30.2c0.4,4,1,5.2,2.4,6.6h-14
			c1.4-1.4,2-2.6,2-6.6V18.6z M94.8,57.4h15.4c13.9,0,22.3-8.9,22.3-23.6c0-12-8-19.9-20.5-19.9H94.8V57.4z"/>
		<path d="M179.1,94.2h27.8c14,0,14.3-2.4,19.1-5.9h1l-2.4,7.7h-57.1c1.4-1.4,2-2.6,2-6.6V18.6c0-4-0.6-5.2-2-6.6h57.1l2.4,7.7h-1
			c-4.8-3.5-5-5.9-19.1-5.9h-27.8v39.5h27.1c3.5-0.1,4.6-2.4,5.9-3.7v9.4c-1.1-1.3-2.4-3.7-5.9-3.8h-27.1V94.2z"/>
		<path d="M241.7,18.6c0-4-0.6-5.2-2-6.6h13.7c-1.4,1.4-2,2.6-2,6.6v70.8c0,4,0.6,5.2,2,6.6h-13.7c1.4-1.4,2-2.6,2-6.6V18.6z"/>
		<path d="M268.5,18.6c-0.4-4-1-5.2-2.4-6.6h29.2c18.4,0,30.7,9,30.7,23c0,13.6-13.4,23.5-25.8,23.5c11.9,0.1,19,5.5,24.4,18.6
			c4.2,9.6,5.4,17.8,13.3,17.8V96c-12.8,0-16.7-0.1-22.8-14.6c-9-22.1-18.6-22.2-27.2-22.2h-9.7v30.2c0.4,4,1,5.2,2.4,6.6h-14
			c1.4-1.4,2-2.6,2-6.6V18.6z M278.1,57.4h15.4c13.9,0,22.3-8.9,22.3-23.6c0-12-8-19.9-20.5-19.9h-17.2V57.4z"/>
		<path d="M404.3,67.7h-37.1l-8.6,22.4c-1.3,3.7-1.1,4.4,0.4,5.9h-8.3c1.9-0.5,4.6-1.8,6.4-6.5l27.8-72.8l-1.8-4.7h10.1
			c11.4,31,28,73,29.8,77.5c1.8,4.7,4.4,6,6.4,6.5h-16.8c1.4-1.4,1.7-2.4,0.4-6.1L404.3,67.7z M403.7,65.9l-17.9-46.7L368,65.9
			H403.7z"/>
		<path d="M443.3,57.7V18.6c0-2.6-0.1-4.7-2-6.6H455c-1.9,1.9-2,4-2,6.6l0.1,39.1c0.1,27,10.7,37.8,24.7,37.8
			c22.2,0,31-17,31.1-37.8l0.1-39.2c0-2.6-0.1-4.6-2-6.5h5.9c-1.9,1.9-2,4-2,6.6l-0.1,39.1c-0.1,22.1-9.4,39.6-32.9,39.6
			C457.6,97.3,443.3,86.3,443.3,57.7z"/>
		<path d="M525.5,96c1.4-1.4,2-2.6,2-6.6V18.6c0-4-0.6-5.2-2-6.6h11.2L568,81l29.2-69h11.6c-1.4,1.4-2,1.9-2,5.9v71.5
			c0,4,0.6,5.2,2,6.6h-13.7c1.4-1.4,2-2.6,2-6.6V16.6l-33,78l-34.8-75.2v70.1c0,4,0.6,5.2,2,6.6H525.5z"/>
	</g>
</g>
<g id="auflösungen">
	<g>
		<rect x="12" y="107" class="st0" width="757" height="152"/>
		<path d="M27.3,123.4h-9.9l-2.3,6c-0.4,1-0.3,1.2,0.1,1.6H13c0.5-0.1,1.2-0.5,1.7-1.7l7.4-19.4l-0.5-1.2h2.7
			c3,8.3,7.5,19.5,7.9,20.7c0.5,1.2,1.2,1.6,1.7,1.7h-4.5c0.4-0.4,0.4-0.6,0.1-1.6L27.3,123.4z M27.1,123l-4.8-12.4L17.6,123H27.1z"
			/>
		<path d="M73.6,120.8v-10.4c0-0.7,0-1.2-0.5-1.8h3.6c-0.5,0.5-0.5,1.1-0.5,1.8l0,10.4c0,7.2,2.8,10.1,6.6,10.1
			c5.9,0,8.3-4.5,8.3-10.1l0-10.5c0-0.7,0-1.2-0.5-1.7h1.6c-0.5,0.5-0.5,1.1-0.5,1.8l0,10.4c0,5.9-2.5,10.6-8.8,10.6
			C77.4,131.4,73.6,128.4,73.6,120.8z"/>
		<path d="M131.5,131c0.4-0.4,0.5-0.7,0.5-1.8v-18.9c0-1.1-0.2-1.4-0.5-1.8h15.2l0.6,2h-0.3c-1.3-0.9-1.3-1.6-5.1-1.6h-7.4v10.5h7.2
			c0.9,0,1.2-0.6,1.6-1v2.5c-0.3-0.4-0.6-1-1.6-1h-7.2v9.2c0,1.1,0.2,1.4,0.5,1.8H131.5z"/>
		<path d="M190.4,108.6c-0.4,0.4-0.5,0.7-0.5,1.8v20.2h7.4c3.7,0,3.8-0.6,5.1-1.6h0.3l-0.6,2h-15.2c0.4-0.4,0.5-0.7,0.5-1.8v-18.9
			c0-1.1-0.2-1.4-0.5-1.8H190.4z"/>
		<path d="M241.8,119.6c0-6.9,4.2-11.5,10.4-11.5c6.3,0,10.4,4.6,10.4,11.5c0,6.9-4.2,11.5-10.4,11.5
			C246,131.1,241.8,126.5,241.8,119.6z M259.8,119.5c0-6.3-3.3-10.9-7.6-10.9c-4.2,0-7.6,4.5-7.6,10.9c0,6.3,3.3,11.2,7.6,11.2
			C256.5,130.6,259.8,125.8,259.8,119.5z M251,103.7c0.7,0,1.2,0.5,1.2,1.2c0,0.6-0.6,1.2-1.2,1.2s-1.2-0.6-1.2-1.2
			C249.8,104.2,250.3,103.7,251,103.7z M254.6,103.7c0.6,0,1.2,0.5,1.2,1.2c0,0.6-0.6,1.2-1.2,1.2c-0.7,0-1.2-0.6-1.2-1.2
			C253.3,104.2,253.9,103.7,254.6,103.7z"/>
		<path d="M304.1,129.1c-0.6,0-0.7,0.6-1,1.1v-6.1c1,4.1,4.5,6.8,7.9,6.8c3.4,0,5.8-2.4,5.8-5.3c0-6.9-13.6-3.7-13.6-11.5
			c0-3.5,3.3-6.1,7.7-6.1c4.3,0,5.8,2.3,6.5,2.3c0.6,0,0.9-0.7,1.1-1.4v5.8c-0.8-3.9-4.3-6.2-7.6-6.2c-2.8,0-5.1,1.9-5.1,4.4
			c0,6.4,13.9,3.3,13.9,11.7c0,3.8-3.5,6.8-8.4,6.8C307,131.5,304.8,129.1,304.1,129.1z"/>
		<path d="M359.5,120.8v-10.4c0-0.7,0-1.2-0.5-1.8h3.6c-0.5,0.5-0.5,1.1-0.5,1.8l0,10.4c0,7.2,2.8,10.1,6.6,10.1
			c5.9,0,8.3-4.5,8.3-10.1l0-10.5c0-0.7,0-1.2-0.5-1.7h1.6c-0.5,0.5-0.5,1.1-0.5,1.8l0,10.4c0,5.9-2.5,10.6-8.8,10.6
			C363.3,131.4,359.5,128.4,359.5,120.8z"/>
		<path d="M434.8,131h-1l-15.3-20.6v18.9c0,1.1,0.2,1.4,0.5,1.8h-1.6c0.4-0.4,0.5-0.7,0.5-1.8v-18.9c0-1.1-0.2-1.4-0.5-1.8h2.9
			l14,18.7v-16.9c0-1.1-0.2-1.4-0.5-1.8h1.6c-0.4,0.4-0.5,0.7-0.5,1.8V131z"/>
		<path d="M477.5,120.3c0,6.1,3.3,10.1,8.2,10.1c2.1,0,4.4-0.4,5.5-1.2v-7c0-1.1-0.1-1.4-0.5-1.7h3.7c-0.4,0.4-0.5,0.7-0.5,1.7
			l-0.1,8.8h-0.2c-0.4-0.7-0.9-1.1-1.5-1.1c-1.3,0-2.6,1.2-6.3,1.2c-6.6,0-11.1-4.4-11.1-10.9c0-7.5,4.5-12.2,11.1-12.2
			c1.7,0,4.4,0.4,6.2,1.8c0.3,0.3,0.5,0.4,0.7,0.4c0.4,0,0.7-0.5,1-1.1v4.2c-0.8-3.3-4.3-4.9-7.5-4.9
			C481.3,108.5,477.5,113,477.5,120.3z"/>
		<path d="M536.9,130.5h7.4c3.7,0,3.8-0.6,5.1-1.6h0.3l-0.6,2h-15.2c0.4-0.4,0.5-0.7,0.5-1.8v-18.9c0-1.1-0.2-1.4-0.5-1.8H549l0.6,2
			h-0.3c-1.3-0.9-1.3-1.6-5.1-1.6h-7.4v10.5h7.2c0.9,0,1.2-0.6,1.6-1v2.5c-0.3-0.4-0.6-1-1.6-1h-7.2V130.5z"/>
		<path d="M606.4,131h-1L590,110.4v18.9c0,1.1,0.2,1.4,0.5,1.8H589c0.4-0.4,0.5-0.7,0.5-1.8v-18.9c0-1.1-0.2-1.4-0.5-1.8h2.9
			l14,18.7v-16.9c0-1.1-0.2-1.4-0.5-1.8h1.6c-0.4,0.4-0.5,0.7-0.5,1.8V131z"/>
	</g>
</g>
</svg>
